<svg width="193" height="50" viewBox="0 0 193 50" fill="none" xmlns="http://www.w3.org/2000/svg">
<path fill-rule="evenodd" clip-rule="evenodd" d="M28.3324 30.8151C27.8037 30.1413 26.9451 29.1651 26.2101 29.0726C25.763 29.0163 25.2491 29.3913 24.7426 29.7451C24.6438 29.7951 23.8804 30.2551 23.7877 30.2826C23.2985 30.4238 22.2547 30.4651 21.6235 29.8826C21.0157 29.3201 20.0547 28.2788 19.2789 27.3251C18.5377 26.3426 17.7607 25.1613 17.363 24.4363C16.9479 23.6851 17.2468 22.6913 17.5038 22.2538C17.5507 22.1751 18.119 21.5838 18.2462 21.4463L18.2647 21.4688C18.7354 21.0688 19.2282 20.6626 19.2838 20.2226C19.3752 19.4901 18.6353 18.4238 18.1066 17.7488C17.5779 17.0726 16.7589 15.8888 15.6434 16.0563C15.2234 16.1188 14.8615 16.2676 14.5045 16.4813L14.4946 16.4701L14.4353 16.5163L14.4044 16.5326L14.4081 16.5376C14.2031 16.6976 13.6175 17.1401 13.5508 17.2001C12.827 17.8513 11.7374 19.3851 12.5799 22.1438C13.205 24.1938 14.5378 26.6013 16.3537 29.0363L16.3438 29.0451C16.4328 29.1626 16.5242 29.2688 16.6168 29.3826C16.7033 29.4988 16.7885 29.6138 16.8775 29.7288L16.8898 29.7201C18.8169 32.0688 20.8378 33.9463 22.6821 35.0538C25.1651 36.5438 26.9303 35.8726 27.7456 35.3388C27.8222 35.2876 28.4052 34.8288 28.6029 34.6776L28.6078 34.6826C28.6152 34.6751 28.6202 34.6651 28.6301 34.6576C28.6479 34.644 28.6656 34.6302 28.6832 34.6163L28.6758 34.6063C28.9747 34.3138 29.2144 34.0013 29.3799 33.6076C29.8135 32.5713 28.8611 31.4913 28.3324 30.8151V30.8151Z" fill="#EB242A"/>
<rect x="1" y="1" width="191" height="48" rx="24" stroke="#EB242A" stroke-width="2"/>
<path d="M70.8 31.16C69.4773 31.16 68.4587 30.6587 67.744 29.656C67.0293 28.6427 66.672 27.2027 66.672 25.336C66.672 23.448 67.0293 22.0133 67.744 21.032C68.4587 20.0507 69.4773 19.56 70.8 19.56C72.1333 19.56 73.152 20.0507 73.856 21.032C74.5707 22.0133 74.928 23.4427 74.928 25.32C74.928 27.1973 74.5707 28.6427 73.856 29.656C73.152 30.6587 72.1333 31.16 70.8 31.16ZM70.8 29.464C71.5253 29.464 72.064 29.1333 72.416 28.472C72.768 27.8 72.944 26.7493 72.944 25.32C72.944 23.8907 72.768 22.856 72.416 22.216C72.064 21.5653 71.5253 21.24 70.8 21.24C70.0853 21.24 69.5467 21.5653 69.184 22.216C68.832 22.856 68.656 23.8907 68.656 25.32C68.656 26.7493 68.832 27.8 69.184 28.472C69.5467 29.1333 70.0853 29.464 70.8 29.464ZM80.7938 31.16C79.3751 31.16 78.2764 30.6693 77.4978 29.688C76.7298 28.7067 76.3458 27.3307 76.3458 25.56C76.3458 24.28 76.5431 23.1973 76.9378 22.312C77.3324 21.416 77.8924 20.7333 78.6178 20.264C79.3538 19.7947 80.2338 19.56 81.2578 19.56C81.8658 19.56 82.4684 19.672 83.0658 19.896C83.6631 20.1093 84.1751 20.4187 84.6018 20.824L83.9138 22.36C83.5191 21.9973 83.0924 21.7307 82.6338 21.56C82.1751 21.3787 81.7111 21.288 81.2418 21.288C80.2818 21.288 79.5511 21.6133 79.0498 22.264C78.5484 22.9147 78.2978 23.8853 78.2978 25.176V26.376H78.1058C78.1911 25.832 78.3724 25.368 78.6498 24.984C78.9271 24.5893 79.2844 24.2907 79.7218 24.088C80.1591 23.8747 80.6444 23.768 81.1778 23.768C81.8391 23.768 82.4258 23.9227 82.9378 24.232C83.4498 24.5413 83.8498 24.968 84.1378 25.512C84.4364 26.056 84.5858 26.68 84.5858 27.384C84.5858 28.1093 84.4204 28.76 84.0898 29.336C83.7698 29.9013 83.3271 30.3493 82.7618 30.68C82.1964 31 81.5404 31.16 80.7938 31.16ZM80.6818 29.528C81.0764 29.528 81.4231 29.4427 81.7218 29.272C82.0204 29.1013 82.2498 28.8613 82.4098 28.552C82.5804 28.232 82.6658 27.8693 82.6658 27.464C82.6658 27.048 82.5804 26.6853 82.4098 26.376C82.2498 26.0667 82.0204 25.8267 81.7218 25.656C81.4231 25.4747 81.0764 25.384 80.6818 25.384C80.2871 25.384 79.9404 25.4747 79.6418 25.656C79.3431 25.8267 79.1084 26.0667 78.9378 26.376C78.7671 26.6853 78.6818 27.048 78.6818 27.464C78.6818 27.8693 78.7671 28.232 78.9378 28.552C79.1084 28.8613 79.3431 29.1013 79.6418 29.272C79.9404 29.4427 80.2871 29.528 80.6818 29.528ZM89.9875 31.16C88.6648 31.16 87.6302 30.8773 86.8835 30.312C86.1475 29.7467 85.7795 28.9627 85.7795 27.96C85.7795 27.1707 86.0195 26.5147 86.4995 25.992C86.9795 25.4693 87.6035 25.16 88.3715 25.064V25.4C87.6782 25.2507 87.1182 24.9253 86.6915 24.424C86.2755 23.9227 86.0675 23.3147 86.0675 22.6C86.0675 21.6507 86.4142 20.9093 87.1075 20.376C87.8115 19.832 88.7715 19.56 89.9875 19.56C91.2142 19.56 92.1742 19.832 92.8675 20.376C93.5715 20.9093 93.9235 21.6507 93.9235 22.6C93.9235 23.3147 93.7208 23.928 93.3155 24.44C92.9208 24.952 92.3822 25.2667 91.6995 25.384V25.064C92.4568 25.1707 93.0648 25.4853 93.5235 26.008C93.9822 26.52 94.2115 27.1707 94.2115 27.96C94.2115 28.9627 93.8382 29.7467 93.0915 30.312C92.3555 30.8773 91.3208 31.16 89.9875 31.16ZM89.9875 29.56C90.7662 29.56 91.3475 29.416 91.7315 29.128C92.1155 28.8293 92.3075 28.392 92.3075 27.816C92.3075 27.24 92.1155 26.808 91.7315 26.52C91.3475 26.232 90.7662 26.088 89.9875 26.088C89.2195 26.088 88.6382 26.232 88.2435 26.52C87.8595 26.808 87.6675 27.24 87.6675 27.816C87.6675 28.392 87.8595 28.8293 88.2435 29.128C88.6382 29.416 89.2195 29.56 89.9875 29.56ZM89.9875 24.488C90.6488 24.488 91.1502 24.3387 91.4915 24.04C91.8435 23.7413 92.0195 23.3307 92.0195 22.808C92.0195 22.296 91.8435 21.896 91.4915 21.608C91.1502 21.3093 90.6488 21.16 89.9875 21.16C89.3368 21.16 88.8355 21.3093 88.4835 21.608C88.1422 21.896 87.9715 22.296 87.9715 22.808C87.9715 23.3307 88.1422 23.7413 88.4835 24.04C88.8355 24.3387 89.3368 24.488 89.9875 24.488ZM103.972 31.16C102.649 31.16 101.631 30.6587 100.916 29.656C100.201 28.6427 99.8439 27.2027 99.8439 25.336C99.8439 23.448 100.201 22.0133 100.916 21.032C101.631 20.0507 102.649 19.56 103.972 19.56C105.305 19.56 106.324 20.0507 107.028 21.032C107.743 22.0133 108.1 23.4427 108.1 25.32C108.1 27.1973 107.743 28.6427 107.028 29.656C106.324 30.6587 105.305 31.16 103.972 31.16ZM103.972 29.464C104.697 29.464 105.236 29.1333 105.588 28.472C105.94 27.8 106.116 26.7493 106.116 25.32C106.116 23.8907 105.94 22.856 105.588 22.216C105.236 21.5653 104.697 21.24 103.972 21.24C103.257 21.24 102.719 21.5653 102.356 22.216C102.004 22.856 101.828 23.8907 101.828 25.32C101.828 26.7493 102.004 27.8 102.356 28.472C102.719 29.1333 103.257 29.464 103.972 29.464ZM113.39 31.16C112.611 31.16 111.864 31.048 111.15 30.824C110.435 30.5893 109.848 30.2693 109.39 29.864L110.062 28.312C110.563 28.696 111.08 28.9787 111.614 29.16C112.158 29.3413 112.728 29.432 113.326 29.432C114.051 29.432 114.6 29.288 114.974 29C115.347 28.712 115.534 28.2907 115.534 27.736C115.534 27.2027 115.347 26.8027 114.974 26.536C114.611 26.2587 114.078 26.12 113.374 26.12H111.55V24.472H113.198C113.806 24.472 114.291 24.3227 114.654 24.024C115.016 23.7253 115.198 23.3147 115.198 22.792C115.198 22.3013 115.027 21.928 114.686 21.672C114.355 21.416 113.875 21.288 113.246 21.288C112.115 21.288 111.118 21.672 110.254 22.44L109.582 20.904C110.04 20.4773 110.606 20.1467 111.278 19.912C111.96 19.6773 112.675 19.56 113.422 19.56C114.595 19.56 115.512 19.8267 116.174 20.36C116.846 20.8827 117.182 21.6133 117.182 22.552C117.182 23.224 116.99 23.8053 116.606 24.296C116.232 24.776 115.715 25.096 115.054 25.256V25.064C115.832 25.192 116.435 25.512 116.862 26.024C117.299 26.5253 117.518 27.1547 117.518 27.912C117.518 28.9147 117.15 29.7093 116.414 30.296C115.678 30.872 114.67 31.16 113.39 31.16ZM124.055 31V28.792H119.015V27.352L124.375 19.72H126.039V27.224H127.655V28.792H126.039V31H124.055ZM124.055 27.224V22.152H124.439L120.551 27.704V27.224H124.055ZM136.968 31.16C136.189 31.16 135.442 31.048 134.728 30.824C134.013 30.5893 133.426 30.2693 132.968 29.864L133.64 28.312C134.141 28.696 134.658 28.9787 135.192 29.16C135.736 29.3413 136.306 29.432 136.904 29.432C137.629 29.432 138.178 29.288 138.552 29C138.925 28.712 139.112 28.2907 139.112 27.736C139.112 27.2027 138.925 26.8027 138.552 26.536C138.189 26.2587 137.656 26.12 136.952 26.12H135.128V24.472H136.776C137.384 24.472 137.869 24.3227 138.232 24.024C138.594 23.7253 138.776 23.3147 138.776 22.792C138.776 22.3013 138.605 21.928 138.264 21.672C137.933 21.416 137.453 21.288 136.824 21.288C135.693 21.288 134.696 21.672 133.832 22.44L133.16 20.904C133.618 20.4773 134.184 20.1467 134.856 19.912C135.538 19.6773 136.253 19.56 137 19.56C138.173 19.56 139.09 19.8267 139.752 20.36C140.424 20.8827 140.76 21.6133 140.76 22.552C140.76 23.224 140.568 23.8053 140.184 24.296C139.81 24.776 139.293 25.096 138.632 25.256V25.064C139.41 25.192 140.013 25.512 140.44 26.024C140.877 26.5253 141.096 27.1547 141.096 27.912C141.096 28.9147 140.728 29.7093 139.992 30.296C139.256 30.872 138.248 31.16 136.968 31.16ZM147.634 31V28.792H142.594V27.352L147.954 19.72H149.618V27.224H151.234V28.792H149.618V31H147.634ZM147.634 27.224V22.152H148.018L144.13 27.704V27.224H147.634ZM156.331 31.16C155.009 31.16 153.99 30.6587 153.275 29.656C152.561 28.6427 152.203 27.2027 152.203 25.336C152.203 23.448 152.561 22.0133 153.275 21.032C153.99 20.0507 155.009 19.56 156.331 19.56C157.665 19.56 158.683 20.0507 159.387 21.032C160.102 22.0133 160.459 23.4427 160.459 25.32C160.459 27.1973 160.102 28.6427 159.387 29.656C158.683 30.6587 157.665 31.16 156.331 31.16ZM156.331 29.464C157.057 29.464 157.595 29.1333 157.947 28.472C158.299 27.8 158.475 26.7493 158.475 25.32C158.475 23.8907 158.299 22.856 157.947 22.216C157.595 21.5653 157.057 21.24 156.331 21.24C155.617 21.24 155.078 21.5653 154.715 22.216C154.363 22.856 154.187 23.8907 154.187 25.32C154.187 26.7493 154.363 27.8 154.715 28.472C155.078 29.1333 155.617 29.464 156.331 29.464Z" fill="#EB242A"/>
<path d="M25 23.0368C25 22.8541 25.066 22.6775 25.1858 22.5398C25.3057 22.4021 25.4712 22.3126 25.6518 22.2877L25.7544 22.2807L34.4251 22.2817L31.4378 19.2915C31.3096 19.1636 31.2316 18.9937 31.2179 18.8129C31.2042 18.6321 31.2559 18.4524 31.3633 18.3065L31.4358 18.2219C31.5635 18.0935 31.7331 18.0155 31.9135 18.002C32.0938 17.9885 32.2731 18.0404 32.4185 18.1483L32.5029 18.2209L36.7777 22.4984L36.8411 22.569L36.9004 22.6618L36.9215 22.6981L36.9598 22.7898L36.9899 22.9108L36.998 22.9813L37 23.0418C36.9999 23.0927 36.9945 23.1433 36.9839 23.1931L36.9608 23.2757C36.9298 23.3712 36.8799 23.4593 36.8139 23.5348L32.504 27.8598C32.3695 27.9954 32.1888 28.075 31.9982 28.0824C31.8076 28.0899 31.6213 28.0247 31.4767 27.9C31.3321 27.7753 31.24 27.6003 31.219 27.4103C31.198 27.2202 31.2496 27.0293 31.3633 26.8758L31.4368 26.7911L34.4211 23.7939L25.7544 23.7939C25.5543 23.7939 25.3624 23.7143 25.2209 23.5725C25.0795 23.4307 25 23.2373 25 23.0368Z" fill="#EB242A" stroke="#EB242A" stroke-width="0.75"/>
<circle cx="24.5" cy="24.5" r="23.5" stroke="#EB242A" stroke-width="2"/>
</svg>
