<svg width="51" height="47" viewBox="0 0 51 47" fill="none" xmlns="http://www.w3.org/2000/svg">
<g clip-path="url(#clip0_137_1882)">
<path d="M-0.000488281 32.6543C0.530449 30.6272 1.06439 28.6001 1.59232 26.5731C2.31524 23.8009 3.02916 21.0267 3.75807 18.2566C3.96305 17.4783 4.52098 17.0248 5.23889 16.9987C5.94681 16.9736 6.57074 17.3476 6.77471 18.0314C6.8777 18.3782 6.8847 18.7996 6.79571 19.1515C5.65785 23.6229 4.49498 28.0873 3.33612 32.5528C2.98016 33.9233 3.38511 34.6422 4.74395 35.0082C15.4977 37.904 26.2524 40.7999 37.0082 43.6927C38.154 44.0014 38.9249 43.5459 39.2139 42.3926C39.5619 41.003 39.8958 39.6093 40.2418 38.2197C40.4827 37.2514 41.2877 36.6984 42.1516 36.8965C43.0764 37.1087 43.5734 37.9664 43.3314 38.9789C42.9825 40.4369 42.6335 41.8948 42.2515 43.3448C41.5356 46.0596 38.9849 47.5437 36.2822 46.8178C25.4305 43.9018 14.5798 40.9829 3.73107 38.0559C1.7603 37.5239 0.537448 36.2409 0.090501 34.2269C0.0775025 34.1676 0.031508 34.1153 0.00151148 34.059C-0.000488281 33.5894 -0.000488281 33.1219 -0.000488281 32.6543Z" fill="white"/>
<path d="M29.7639 34.1817C24.4036 34.1817 19.0422 34.1475 13.6828 34.1978C11.3431 34.2199 9.76328 33.1199 8.7504 31.127C8.48943 30.6142 8.50243 29.9274 8.50143 29.3211C8.48643 21.1766 8.47643 13.032 8.49943 4.88748C8.50743 2.0369 10.6092 0.00277325 13.4558 0.00176776C24.3266 -0.00124874 35.1973 -0.00225424 46.067 0.00176776C48.9247 0.00277325 50.9944 2.08315 50.9964 4.96189C51.0024 13.0391 51.0014 21.1172 50.9974 29.1944C50.9954 32.1134 48.9607 34.1706 46.046 34.1766C40.6176 34.1907 35.1903 34.1817 29.7639 34.1817ZM11.6771 26.4403C11.748 26.4916 11.819 26.5439 11.89 26.5952C11.976 26.4343 12.031 26.2413 12.154 26.1166C14.2837 23.9628 16.4155 21.809 18.5612 19.6713C20.0991 18.14 22.3058 18.1229 23.8756 19.615C24.4066 20.1198 24.9185 20.6436 25.4274 21.1705C25.7564 21.5104 26.0664 21.8703 26.4093 22.2494C27.3382 21.1283 28.1761 20.1168 29.015 19.1042C30.7468 17.0138 32.4806 14.9264 34.2084 12.8329C35.2483 11.574 36.5631 11.0904 38.1539 11.4222C39.1208 11.6243 39.7597 12.3061 40.3717 13.026C42.7314 15.8052 45.1011 18.5773 47.4628 21.3555C47.5528 21.4621 47.6038 21.6019 47.6738 21.7266C47.7198 21.6873 47.7658 21.6481 47.8108 21.6079C47.8108 21.442 47.8108 21.2761 47.8108 21.1102C47.8108 15.7851 47.8108 10.461 47.8108 5.13584C47.8108 3.80155 47.2219 3.20529 45.908 3.20428C35.1353 3.20428 24.3636 3.20428 13.5908 3.20428C12.27 3.20428 11.6791 3.79752 11.6791 5.13081C11.6781 12.0748 11.6791 19.0188 11.6791 25.9617C11.6771 26.1226 11.6771 26.2815 11.6771 26.4403ZM12.215 30.5408C12.6649 30.9782 13.1459 30.9782 13.6318 30.9782C24.3056 30.9761 34.9783 30.9771 45.6521 30.9771C45.818 30.9771 45.984 30.9802 46.15 30.9761C47.1549 30.951 47.7948 30.3105 47.8078 29.307C47.8158 28.6896 47.7658 28.0672 47.8218 27.4549C47.8748 26.8848 47.6508 26.4886 47.2989 26.0784C44.1562 22.4123 41.0276 18.7342 37.897 15.0581C37.292 14.3482 37.1031 14.3472 36.5141 15.0591C33.6475 18.522 30.7818 21.986 27.9111 25.4469C27.1282 26.3911 26.1564 26.4353 25.2945 25.5726C24.1296 24.4072 22.9707 23.2348 21.8079 22.0674C21.3039 21.5617 21.1869 21.5627 20.676 22.0755C18.3633 24.4002 16.0525 26.7269 13.7378 29.0496C13.2479 29.5423 12.7439 30.0239 12.215 30.5408Z" fill="white"/>
<path d="M19.1138 14.9455C16.7761 14.9414 14.8703 13.029 14.8683 10.6862C14.8663 8.33029 16.8051 6.39772 19.1568 6.4118C21.4825 6.42588 23.3943 8.37051 23.3763 10.7033C23.3563 13.0561 21.4535 14.9505 19.1138 14.9455ZM19.1278 11.7369C19.7067 11.7339 20.1707 11.2784 20.1827 10.7013C20.1947 10.114 19.7037 9.61632 19.1158 9.61934C18.5479 9.62236 18.0719 10.0929 18.0599 10.663C18.0469 11.2523 18.5319 11.7399 19.1278 11.7369Z" fill="white"/>
</g>
<defs>
<clipPath id="clip0_137_1882">
<rect width="51" height="47" fill="white"/>
</clipPath>
</defs>
</svg>
