<svg width="192" height="425" viewBox="0 0 192 425" fill="none" xmlns="http://www.w3.org/2000/svg">
<circle cx="3.16483" cy="3.16483" r="3.16483" fill="#BF0E13"/>
<circle cx="49.5823" cy="3.16483" r="3.16483" fill="#BF0E13"/>
<circle cx="96" cy="3.16483" r="3.16483" fill="#BF0E13"/>
<circle cx="142.418" cy="3.16483" r="3.16483" fill="#BF0E13"/>
<circle cx="188.835" cy="3.16483" r="3.16483" fill="#BF0E13"/>
<circle cx="3.16483" cy="49.5823" r="3.16483" fill="#BF0E13"/>
<circle cx="49.5823" cy="49.5823" r="3.16483" fill="#BF0E13"/>
<circle cx="96" cy="49.5823" r="3.16483" fill="#BF0E13"/>
<circle cx="142.417" cy="49.5823" r="3.16483" fill="#BF0E13"/>
<circle cx="188.835" cy="49.5823" r="3.16483" fill="#BF0E13"/>
<circle cx="3.16483" cy="96" r="3.16483" fill="#BF0E13"/>
<circle cx="49.5823" cy="96" r="3.16483" fill="#BF0E13"/>
<circle cx="96" cy="96" r="3.16483" fill="#BF0E13"/>
<circle cx="142.418" cy="96" r="3.16483" fill="#BF0E13"/>
<circle cx="188.835" cy="96" r="3.16483" fill="#BF0E13"/>
<circle cx="3.16483" cy="142.418" r="3.16483" fill="#BF0E13"/>
<circle cx="49.5823" cy="142.418" r="3.16483" fill="#BF0E13"/>
<circle cx="96" cy="142.418" r="3.16483" fill="#BF0E13"/>
<circle cx="142.418" cy="142.418" r="3.16483" fill="#BF0E13"/>
<circle cx="188.835" cy="142.418" r="3.16483" fill="#BF0E13"/>
<circle cx="3.16483" cy="188.835" r="3.16483" fill="#BF0E13"/>
<circle cx="49.5823" cy="188.835" r="3.16483" fill="#BF0E13"/>
<circle cx="96" cy="188.835" r="3.16483" fill="#BF0E13"/>
<circle cx="142.418" cy="188.835" r="3.16483" fill="#BF0E13"/>
<circle cx="188.835" cy="188.835" r="3.16483" fill="#BF0E13"/>
<circle cx="3.16483" cy="235.253" r="3.16483" fill="#BF0E13"/>
<circle cx="49.5823" cy="235.253" r="3.16483" fill="#BF0E13"/>
<circle cx="96" cy="235.253" r="3.16483" fill="#BF0E13"/>
<circle cx="142.418" cy="235.253" r="3.16483" fill="#BF0E13"/>
<circle cx="188.835" cy="235.253" r="3.16483" fill="#BF0E13"/>
<circle cx="3.16483" cy="281.67" r="3.16483" fill="#BF0E13"/>
<circle cx="49.5823" cy="281.67" r="3.16483" fill="#BF0E13"/>
<circle cx="96" cy="281.67" r="3.16483" fill="#BF0E13"/>
<circle cx="142.418" cy="281.67" r="3.16483" fill="#BF0E13"/>
<circle cx="188.835" cy="281.67" r="3.16483" fill="#BF0E13"/>
<circle cx="3.16483" cy="328.088" r="3.16483" fill="#BF0E13"/>
<circle cx="49.5823" cy="328.088" r="3.16483" fill="#BF0E13"/>
<circle cx="96" cy="328.088" r="3.16483" fill="#BF0E13"/>
<circle cx="142.418" cy="328.088" r="3.16483" fill="#BF0E13"/>
<circle cx="188.835" cy="328.088" r="3.16483" fill="#BF0E13"/>
<circle cx="3.16483" cy="374.505" r="3.16483" fill="#BF0E13"/>
<circle cx="49.5823" cy="374.505" r="3.16483" fill="#BF0E13"/>
<circle cx="96" cy="374.505" r="3.16483" fill="#BF0E13"/>
<circle cx="142.418" cy="374.505" r="3.16483" fill="#BF0E13"/>
<circle cx="188.835" cy="374.505" r="3.16483" fill="#BF0E13"/>
<circle cx="3.16483" cy="420.923" r="3.16483" fill="#BF0E13"/>
<circle cx="49.5823" cy="420.923" r="3.16483" fill="#BF0E13"/>
<circle cx="96" cy="420.923" r="3.16483" fill="#BF0E13"/>
<circle cx="142.418" cy="420.923" r="3.16483" fill="#BF0E13"/>
<circle cx="188.835" cy="420.923" r="3.16483" fill="#BF0E13"/>
</svg>
