<svg width="115" height="259" viewBox="0 0 115 259" fill="none" xmlns="http://www.w3.org/2000/svg">
<path opacity="0.1" d="M91.321 249.759C71.8578 261.01 40.3223 261.01 20.9412 249.759C1.47793 238.508 1.47793 220.359 20.9412 209.108C40.4045 197.857 71.9399 197.857 91.321 209.108C110.784 220.359 110.784 238.508 91.321 249.759Z" fill="black"/>
<path d="M41.1447 49.4104C41.1447 46.8646 41.4732 44.483 41.9659 42.4299C31.2899 39.5556 23.406 46.2076 23.406 59.5937C23.406 75.5257 34.5748 94.8247 48.3715 102.791C59.951 109.443 69.6415 105.993 72.4337 95.3174C70.3806 94.7426 68.2454 93.8392 66.0281 92.6073C52.3135 84.6414 41.1447 65.3423 41.1447 49.4104Z" fill="url(#paint0_linear_137_2812)"/>
<path d="M66.0271 6.04877C53.7907 -1.01385 42.6219 -1.67084 34.081 2.92808H33.9989C33.2598 3.33869 32.5207 3.83143 31.7816 4.32417L20.2021 11.3868C28.1681 8.75884 37.8587 10.0728 48.3705 16.15C75.0606 31.5892 96.7412 71.5833 96.7412 105.5C96.7412 139.417 48.3705 190.17 48.3705 190.17L66.0271 179.986C66.0271 179.986 114.398 129.152 114.398 95.317C114.48 61.4821 92.7993 21.488 66.0271 6.04877Z" fill="url(#paint1_linear_137_2812)"/>
<path d="M0 49.6568C0 83.5738 48.3707 190.252 48.3707 190.252C48.3707 190.252 96.7415 139.418 96.7415 105.583C96.7415 71.6659 75.0609 31.6717 48.3707 16.2325C37.8589 10.1554 28.1684 8.84142 20.2024 11.4694C7.96598 15.4934 0 29.1259 0 49.6568ZM48.3707 102.791C34.574 94.8247 23.4873 75.5257 23.4873 59.5937C23.4873 46.2897 31.3712 39.5556 42.0472 42.4299C44.1003 43.0048 46.2355 43.9082 48.4529 45.14C62.2496 53.106 73.4184 72.405 73.4184 88.337C73.4184 90.8828 73.0899 93.2644 72.5972 95.3175C69.6407 105.994 59.9502 109.443 48.3707 102.791Z" fill="url(#paint2_linear_137_2812)"/>
<defs>
<linearGradient id="paint0_linear_137_2812" x1="-16.1488" y1="91.0716" x2="231.088" y2="25.6693" gradientUnits="userSpaceOnUse">
<stop stop-color="#E02D7B"/>
<stop offset="0.3191" stop-color="#E6506F"/>
<stop offset="0.7709" stop-color="#EE7C5F"/>
<stop offset="1" stop-color="#F18D59"/>
</linearGradient>
<linearGradient id="paint1_linear_137_2812" x1="-46.3852" y1="127.963" x2="297.293" y2="4.30199" gradientUnits="userSpaceOnUse">
<stop stop-color="#E02D7B"/>
<stop offset="0.3191" stop-color="#E6506F"/>
<stop offset="0.7709" stop-color="#EE7C5F"/>
<stop offset="1" stop-color="#F18D59"/>
</linearGradient>
<linearGradient id="paint2_linear_137_2812" x1="-100.564" y1="154.354" x2="109.819" y2="70.843" gradientUnits="userSpaceOnUse">
<stop stop-color="#E02D7B"/>
<stop offset="0.3191" stop-color="#E6506F"/>
<stop offset="0.7709" stop-color="#EE7C5F"/>
<stop offset="1" stop-color="#F18D59"/>
</linearGradient>
</defs>
</svg>
