<svg width="226" height="41" viewBox="0 0 226 41" fill="none" xmlns="http://www.w3.org/2000/svg">
<path d="M0.704852 7.29595C3.59828 8.54815 13.3675 12.7268 16.5822 13.4631C18.7323 13.9564 23.2409 13.9303 25.4101 13.5187C28.703 12.8935 38.4774 8.57767 41.0218 7.4401C41.0339 7.43489 41.0496 7.42794 41.0617 7.42273C41.0912 7.41057 41.1156 7.39842 41.1433 7.38626C39.8373 6.88434 35.7195 5.27784 24.8492 0.901234C22.1485 -0.185972 19.6285 -0.383962 16.6065 0.831764C6.02799 5.0868 1.97094 6.69677 0.581543 7.24211C0.607594 7.25253 0.631909 7.26469 0.65796 7.27511C0.675327 7.28379 0.689221 7.289 0.704852 7.29595Z" fill="#EB242A"/>
<path d="M20.3547 40.4522C20.3113 37.6178 20.0873 26.1761 19.2067 22.8172C18.6979 20.8773 16.5773 17.2979 15.1358 15.9032C12.7669 13.6142 2.79617 9.10386 0.147624 7.92635C0.0955213 7.90377 0.0468923 7.88119 0 7.86035C0.284827 9.59015 0.435924 10.8424 2.93684 22.9579C4.05358 28.3731 4.14736 28.981 6.95395 30.9921C16.2942 37.6873 19.3787 39.9451 20.3582 40.6728C20.3582 40.6155 20.3564 40.5529 20.3547 40.4835C20.3564 40.473 20.3564 40.4626 20.3547 40.4522Z" fill="#EB242A"/>
<path d="M41.419 8.16572C41.4138 8.16745 41.4086 8.17093 41.4051 8.17266C39.0102 9.26855 29.5605 13.6521 27.103 15.7571C25.4913 17.1378 23.1293 20.844 22.4502 22.8534C21.3387 26.1498 21.2345 37.6575 21.2258 40.4675C21.2258 40.4814 21.2258 40.4936 21.2258 40.5075C21.2258 40.577 21.2258 40.6395 21.2258 40.6968C22.6413 39.6982 27.499 36.2316 34.7325 30.6514C37.2734 28.6924 37.4714 27.5253 38.2859 23.9285C39.816 17.1569 41.2019 10.024 41.5719 8.09277C41.5232 8.11882 41.4763 8.13967 41.419 8.16572Z" fill="#EB242A"/>
<path d="M65.2186 14.3198H68.8033C69.0343 14.3198 69.2236 14.5074 69.2236 14.7401V30.2076C69.2236 30.4386 69.036 30.6279 68.8033 30.6279H65.6077C65.4774 30.6279 65.3541 30.5671 65.2759 30.4647L59.1487 22.519C58.9038 22.2012 58.3967 22.3749 58.3967 22.7761V30.2094C58.3967 30.4403 58.2091 30.6296 57.9764 30.6296H54.3917C54.1607 30.6296 53.9714 30.4421 53.9714 30.2094V14.7401C53.9714 14.5091 54.159 14.3198 54.3917 14.3198H57.6099C57.7402 14.3198 57.8635 14.3806 57.9434 14.4831L64.0481 22.4252C64.2929 22.7431 64.8001 22.5711 64.8001 22.1699V14.7401C64.8001 14.5091 64.9876 14.3198 65.2186 14.3198Z" fill="#EB242A"/>
<path d="M87.5389 16.3949C89.2999 18.0882 90.1805 20.115 90.1805 22.4718C90.1805 24.832 89.2982 26.8553 87.5389 28.5521C85.7761 30.2472 83.6294 31.0947 81.1007 31.0947C78.572 31.0947 76.4271 30.249 74.6626 28.5521C72.9015 26.8571 72.021 24.832 72.021 22.4718C72.021 20.115 72.9033 18.0882 74.6626 16.3949C76.4254 14.6998 78.572 13.8523 81.1007 13.8523C83.6294 13.854 85.7743 14.6998 87.5389 16.3949ZM77.8634 19.1459C76.9933 20.0299 76.5556 21.1397 76.5556 22.4718C76.5556 23.8073 76.9916 24.9189 77.8634 25.8063C78.737 26.6938 79.8173 27.135 81.1059 27.135C82.3946 27.135 83.4749 26.6921 84.3432 25.8063C85.2116 24.9206 85.6458 23.8073 85.6458 22.4718C85.6458 21.1397 85.2116 20.0299 84.3432 19.1459C83.4749 18.2636 82.3946 17.8225 81.1059 17.8225C79.8173 17.8225 78.737 18.2654 77.8634 19.1459Z" fill="#EB242A"/>
<path d="M96.1345 30.3481L90.6116 14.8806C90.5144 14.6079 90.7159 14.3196 91.0076 14.3196H94.8788C95.0629 14.3196 95.2245 14.4394 95.28 14.6131L98.2916 24.2156C98.4149 24.6081 98.9706 24.6081 99.0922 24.2156L102.092 14.6131C102.147 14.4377 102.309 14.3179 102.493 14.3179H106.364C106.654 14.3179 106.857 14.6062 106.76 14.8788L101.237 30.3463C101.178 30.5131 101.02 30.6242 100.841 30.6242H96.5288C96.3516 30.6277 96.1936 30.5165 96.1345 30.3481Z" fill="#EB242A"/>
<path d="M116.31 27.137H111.557C111.376 27.137 111.215 27.2533 111.159 27.4253L110.192 30.3413C110.134 30.5132 109.975 30.6296 109.794 30.6296H105.928C105.634 30.6296 105.431 30.3361 105.535 30.0617L111.392 14.5942C111.454 14.4309 111.611 14.3232 111.784 14.3232H116.097C116.27 14.3232 116.427 14.4309 116.489 14.5942L122.345 30.0617C122.45 30.3361 122.246 30.6296 121.953 30.6296H118.085C117.905 30.6296 117.745 30.515 117.688 30.343L116.71 27.4253C116.652 27.2516 116.491 27.137 116.31 27.137ZM114.879 23.6444C115.162 23.6444 115.365 23.3682 115.279 23.0973L113.941 18.8683L112.601 23.0956C112.515 23.3665 112.717 23.6426 113 23.6426H114.879V23.6444Z" fill="#EB242A"/>
<path d="M132.594 30.6294H125.211C124.98 30.6294 124.791 30.4418 124.791 30.2091V14.7416C124.791 14.5106 124.978 14.3213 125.211 14.3213H132.129C133.805 14.3213 135.152 14.7485 136.177 15.6047C137.198 16.4627 137.712 17.4718 137.712 18.6302C137.712 19.08 137.639 19.5038 137.495 19.9102C137.353 20.3166 137.177 20.6396 136.974 20.881C136.769 21.1259 136.566 21.336 136.366 21.5132C136.165 21.6903 135.988 21.8206 135.836 21.8953L135.621 22.0081C135.696 22.0377 135.802 22.0811 135.934 22.1401C136.066 22.1975 136.3 22.3277 136.634 22.5379C136.967 22.7445 137.262 22.9825 137.521 23.2482C137.78 23.5139 138.011 23.8769 138.221 24.3406C138.428 24.8026 138.534 25.3062 138.534 25.8516C138.534 27.1263 137.98 28.2396 136.868 29.1948C135.755 30.15 134.329 30.6294 132.594 30.6294ZM129.216 26.7182C129.216 26.9492 129.404 27.1385 129.636 27.1385H132.241C132.757 27.1385 133.178 26.9822 133.502 26.6731C133.827 26.3604 133.992 25.9731 133.992 25.506C133.992 25.0405 133.829 24.6515 133.502 24.3406C133.178 24.028 132.757 23.8734 132.241 23.8734H129.636C129.405 23.8734 129.216 24.061 129.216 24.2937V26.7182ZM131.661 17.8243H129.636C129.405 17.8243 129.216 18.0119 129.216 18.2446V20.1915C129.216 20.4225 129.404 20.6118 129.636 20.6118H131.661C132.123 20.6118 132.493 20.485 132.764 20.2297C133.039 19.9761 133.176 19.6375 133.176 19.2189C133.176 18.7986 133.039 18.46 132.764 18.2081C132.492 17.9511 132.123 17.8243 131.661 17.8243Z" fill="#EB242A"/>
<path d="M141.323 30.2091V14.7416C141.323 14.5106 141.511 14.3213 141.743 14.3213H149.013C150.734 14.3213 152.152 14.8562 153.27 15.9295C154.389 17.0028 154.948 18.3314 154.948 19.9154C154.948 20.5666 154.851 21.1762 154.658 21.7407C154.465 22.3051 154.232 22.7619 153.958 23.1145C153.687 23.467 153.413 23.7675 153.14 24.0124C152.865 24.259 152.64 24.4292 152.457 24.5177L152.15 24.6897L155.17 29.9972C155.33 30.2768 155.127 30.6242 154.805 30.6242H151.123C150.971 30.6242 150.828 30.5408 150.755 30.4053L148.197 25.7144C148.124 25.5789 147.982 25.4955 147.829 25.4955H146.167C145.936 25.4955 145.747 25.6831 145.747 25.9158V30.2056C145.747 30.4366 145.559 30.6259 145.326 30.6259H141.742C141.511 30.6294 141.323 30.4418 141.323 30.2091ZM150.035 21.0755C150.359 20.7664 150.524 20.3756 150.524 19.9102C150.524 19.4447 150.361 19.0574 150.035 18.7517C149.71 18.4426 149.289 18.2898 148.774 18.2898H146.169C145.938 18.2898 145.748 18.4773 145.748 18.7101V21.1241C145.748 21.3551 145.936 21.5444 146.169 21.5444H148.774C149.289 21.5444 149.708 21.3881 150.035 21.0755Z" fill="#EB242A"/>
<path d="M172.959 16.3966C174.724 18.0917 175.603 20.1184 175.603 22.4752C175.603 24.8337 174.724 26.8588 172.959 28.5538C171.198 30.2489 169.052 31.0947 166.523 31.0947C163.994 31.0947 161.849 30.2472 160.086 28.5538C158.322 26.8588 157.443 24.8337 157.443 22.4752C157.443 20.1184 158.322 18.0917 160.086 16.3966C161.848 14.7015 163.994 13.8557 166.523 13.8557C169.052 13.854 171.198 14.7015 172.959 16.3966ZM163.287 19.1493C162.415 20.0316 161.98 21.1396 161.98 22.4735C161.98 23.8108 162.415 24.9188 163.287 25.8063C164.159 26.6938 165.239 27.1384 166.528 27.1384C167.817 27.1384 168.895 26.6938 169.764 25.8063C170.632 24.9188 171.066 23.8108 171.066 22.4735C171.066 21.1396 170.634 20.0316 169.764 19.1493C168.895 18.2653 167.817 17.8242 166.528 17.8242C165.239 17.8242 164.159 18.2653 163.287 19.1493Z" fill="#EB242A"/>
<path d="M184.212 24.8651L182.931 26.3153C182.863 26.3917 182.825 26.4907 182.825 26.5932V30.2108C182.825 30.4418 182.637 30.6311 182.404 30.6311H178.82C178.589 30.6311 178.399 30.4435 178.399 30.2108V14.7416C178.399 14.5106 178.587 14.3213 178.82 14.3213H182.404C182.635 14.3213 182.825 14.5089 182.825 14.7416V19.4708C182.825 19.8615 183.311 20.0404 183.565 19.7434L188.057 14.4706C188.137 14.3769 188.254 14.323 188.377 14.323H192.396C192.755 14.323 192.948 14.7451 192.714 15.0177L187.696 20.8376C187.573 20.98 187.561 21.1849 187.663 21.343L193.349 29.9816C193.533 30.2612 193.334 30.6328 192.999 30.6328H188.874C188.733 30.6328 188.601 30.5616 188.523 30.4435L184.878 24.9155C184.725 24.681 184.396 24.6567 184.212 24.8651Z" fill="#EB242A"/>
<path d="M201.34 26.8988H208.881C209.112 26.8988 209.302 27.0864 209.302 27.3191V30.2091C209.302 30.4401 209.114 30.6294 208.881 30.6294H196.917C196.686 30.6294 196.496 30.4418 196.496 30.2091V14.7416C196.496 14.5106 196.684 14.3213 196.917 14.3213H208.655C208.886 14.3213 209.076 14.5089 209.076 14.7416V17.6315C209.076 17.8625 208.888 18.0518 208.655 18.0518H201.34C201.109 18.0518 200.92 18.2394 200.92 18.4721V20.1898C200.92 20.4208 201.108 20.6101 201.34 20.6101H206.788C207.019 20.6101 207.209 20.7976 207.209 21.0304V23.6928C207.209 23.9238 207.021 24.1131 206.788 24.1131H201.34C201.109 24.1131 200.92 24.3007 200.92 24.5334V26.4803C200.92 26.7113 201.108 26.8988 201.34 26.8988Z" fill="#EB242A"/>
<path d="M212.097 30.2091V14.7416C212.097 14.5106 212.285 14.3213 212.518 14.3213H219.788C221.509 14.3213 222.926 14.8562 224.044 15.9295C225.163 17.0028 225.722 18.3314 225.722 19.9154C225.722 20.5666 225.625 21.1762 225.432 21.7407C225.239 22.3051 225.007 22.7619 224.732 23.1145C224.461 23.467 224.187 23.7675 223.914 24.0124C223.64 24.259 223.414 24.4292 223.232 24.5177L222.924 24.6897L225.944 29.9972C226.104 30.2768 225.901 30.6242 225.58 30.6242H221.898C221.745 30.6242 221.603 30.5408 221.53 30.4053L218.971 25.7144C218.898 25.5789 218.756 25.4955 218.603 25.4955H216.941C216.71 25.4955 216.521 25.6831 216.521 25.9158V30.2056C216.521 30.4366 216.333 30.6259 216.101 30.6259H212.516C212.285 30.6294 212.097 30.4418 212.097 30.2091ZM220.809 21.0755C221.134 20.7664 221.299 20.3756 221.299 19.9102C221.299 19.4447 221.135 19.0574 220.809 18.7517C220.484 18.4426 220.064 18.2898 219.548 18.2898H216.943C216.712 18.2898 216.523 18.4773 216.523 18.7101V21.1241C216.523 21.3551 216.71 21.5444 216.943 21.5444H219.548C220.064 21.5444 220.484 21.3881 220.809 21.0755Z" fill="#EB242A"/>
</svg>
