<svg width="206" height="38" viewBox="0 0 206 38" fill="none" xmlns="http://www.w3.org/2000/svg">
<path d="M0.642182 6.65029C3.27955 7.79167 12.1842 11.6005 15.1145 12.2717C17.0743 12.7213 21.1839 12.6976 23.1611 12.3224C26.1626 11.7525 35.0721 7.81858 37.3912 6.78168C37.4023 6.77693 37.4166 6.7706 37.4276 6.76585C37.4546 6.75477 37.4767 6.74369 37.502 6.73261C36.3116 6.27511 32.5582 4.81078 22.6498 0.821478C20.1882 -0.169514 17.8912 -0.349983 15.1366 0.758156C5.49425 4.63664 1.79623 6.10414 0.529785 6.60121C0.553531 6.61071 0.575694 6.62179 0.59944 6.63129C0.61527 6.63921 0.627935 6.64396 0.642182 6.65029Z" fill="white"/>
<path d="M18.5534 36.8722C18.5138 34.2886 18.3096 23.8595 17.507 20.7978C17.0432 19.0296 15.1103 15.7669 13.7963 14.4957C11.637 12.4092 2.54872 8.29802 0.13456 7.22471C0.0870681 7.20413 0.0427425 7.18355 0 7.16455C0.259621 8.74127 0.397347 9.88266 2.67695 20.9261C3.69485 25.862 3.78034 26.4161 6.33855 28.2493C14.8522 34.3519 17.6637 36.4099 18.5566 37.0732C18.5566 37.021 18.555 36.964 18.5534 36.9007C18.555 36.8912 18.555 36.8817 18.5534 36.8722Z" fill="white"/>
<path d="M37.7543 7.44344C37.7496 7.44502 37.7448 7.44819 37.7417 7.44977C35.5586 8.44868 26.9452 12.4443 24.7052 14.363C23.2361 15.6215 21.0832 18.9997 20.4642 20.8313C19.451 23.836 19.3561 34.3253 19.3481 36.8867C19.3481 36.8994 19.3481 36.9104 19.3481 36.9231C19.3481 36.9864 19.3481 37.0434 19.3481 37.0957C20.6383 36.1854 25.0661 33.0256 31.6596 27.9393C33.9756 26.1536 34.156 25.0898 34.8985 21.8113C36.2932 15.6389 37.5564 9.13731 37.8936 7.37695C37.8493 7.4007 37.8066 7.4197 37.7543 7.44344Z" fill="white"/>
<path d="M59.4469 13.0522H62.7144C62.9249 13.0522 63.0975 13.2232 63.0975 13.4353V27.534C63.0975 27.7446 62.9265 27.9171 62.7144 27.9171H59.8015C59.6828 27.9171 59.5704 27.8617 59.4992 27.7683L53.9142 20.5259C53.6909 20.2362 53.2287 20.3945 53.2287 20.7601V27.5356C53.2287 27.7462 53.0577 27.9187 52.8456 27.9187H49.5782C49.3676 27.9187 49.1951 27.7478 49.1951 27.5356V13.4353C49.1951 13.2248 49.366 13.0522 49.5782 13.0522H52.5116C52.6303 13.0522 52.7427 13.1077 52.8155 13.2011L58.38 20.4404C58.6032 20.7301 59.0654 20.5733 59.0654 20.2077V13.4353C59.0654 13.2248 59.2364 13.0522 59.4469 13.0522Z" fill="white"/>
<path d="M79.7926 14.9436C81.3978 16.487 82.2004 18.3345 82.2004 20.4827C82.2004 22.6341 81.3962 24.4783 79.7926 26.025C78.1857 27.57 76.2291 28.3426 73.9242 28.3426C71.6192 28.3426 69.6642 27.5716 68.0558 26.025C66.4506 24.4799 65.6479 22.6341 65.6479 20.4827C65.6479 18.3345 66.4521 16.487 68.0558 14.9436C69.6626 13.3985 71.6192 12.626 73.9242 12.626C76.2291 12.6276 78.1842 13.3985 79.7926 14.9436ZM70.9733 17.4511C70.1802 18.2569 69.7813 19.2685 69.7813 20.4827C69.7813 21.7001 70.1787 22.7132 70.9733 23.5221C71.7696 24.3311 72.7543 24.7332 73.9289 24.7332C75.1035 24.7332 76.0882 24.3295 76.8797 23.5221C77.6713 22.7148 78.067 21.7001 78.067 20.4827C78.067 19.2685 77.6713 18.2569 76.8797 17.4511C76.0882 16.6469 75.1035 16.2448 73.9289 16.2448C72.7543 16.2448 71.7696 16.6485 70.9733 17.4511Z" fill="white"/>
<path d="M87.6267 27.6619L82.5926 13.5632C82.504 13.3147 82.6876 13.0519 82.9536 13.0519H86.4822C86.65 13.0519 86.7972 13.1611 86.8479 13.3194L89.5929 22.0721C89.7053 22.4299 90.2119 22.4299 90.3227 22.0721L93.0566 13.3194C93.1073 13.1595 93.2545 13.0503 93.4223 13.0503H96.9509C97.2153 13.0503 97.4005 13.3131 97.3119 13.5616L92.2777 27.6603C92.2239 27.8123 92.0799 27.9136 91.9168 27.9136H87.9861C87.8246 27.9168 87.6806 27.8155 87.6267 27.6619Z" fill="white"/>
<path d="M106.018 24.735H101.685C101.52 24.735 101.373 24.841 101.322 24.9977L100.441 27.6557C100.388 27.8124 100.243 27.9185 100.078 27.9185H96.5541C96.2866 27.9185 96.1014 27.6509 96.1964 27.4008L101.534 13.3021C101.591 13.1533 101.734 13.0552 101.892 13.0552H105.823C105.981 13.0552 106.124 13.1533 106.181 13.3021L111.519 27.4008C111.614 27.6509 111.429 27.9185 111.161 27.9185H107.636C107.471 27.9185 107.325 27.814 107.273 27.6573L106.382 24.9977C106.329 24.8394 106.182 24.735 106.018 24.735ZM104.713 21.5514C104.971 21.5514 105.156 21.2997 105.077 21.0528L103.858 17.198L102.636 21.0512C102.559 21.2981 102.742 21.5499 103 21.5499H104.713V21.5514Z" fill="white"/>
<path d="M120.86 27.9186H114.131C113.92 27.9186 113.748 27.7476 113.748 27.5355V13.4368C113.748 13.2263 113.919 13.0537 114.131 13.0537H120.436C121.964 13.0537 123.192 13.4431 124.126 14.2236C125.057 15.0056 125.525 15.9254 125.525 16.9813C125.525 17.3913 125.459 17.7775 125.328 18.148C125.198 18.5184 125.038 18.8129 124.853 19.0329C124.666 19.2561 124.481 19.4477 124.299 19.6091C124.115 19.7706 123.954 19.8893 123.816 19.9574L123.619 20.0603C123.688 20.0872 123.784 20.1268 123.904 20.1806C124.025 20.2329 124.238 20.3516 124.542 20.5431C124.846 20.7315 125.115 20.9484 125.351 21.1906C125.587 21.4328 125.798 21.7637 125.989 22.1864C126.178 22.6074 126.274 23.0665 126.274 23.5636C126.274 24.7256 125.769 25.7403 124.756 26.611C123.741 27.4817 122.442 27.9186 120.86 27.9186ZM117.781 24.3536C117.781 24.5641 117.952 24.7367 118.164 24.7367H120.539C121.009 24.7367 121.392 24.5942 121.688 24.3124C121.984 24.0275 122.135 23.6744 122.135 23.2486C122.135 22.8243 121.986 22.4697 121.688 22.1864C121.392 21.9014 121.009 21.7605 120.539 21.7605H118.164C117.954 21.7605 117.781 21.9315 117.781 22.1436V24.3536ZM120.01 16.2467H118.164C117.954 16.2467 117.781 16.4177 117.781 16.6298V18.4044C117.781 18.615 117.952 18.7875 118.164 18.7875H120.01C120.431 18.7875 120.768 18.672 121.015 18.4393C121.265 18.2081 121.391 17.8994 121.391 17.5179C121.391 17.1348 121.265 16.8261 121.015 16.5966C120.767 16.3623 120.431 16.2467 120.01 16.2467Z" fill="white"/>
<path d="M128.816 27.5355V13.4368C128.816 13.2263 128.987 13.0537 129.199 13.0537H135.826C137.395 13.0537 138.686 13.5413 139.706 14.5196C140.725 15.4979 141.235 16.709 141.235 18.1527C141.235 18.7464 141.146 19.302 140.971 19.8165C140.795 20.331 140.583 20.7474 140.333 21.0687C140.086 21.3901 139.836 21.664 139.587 21.8872C139.337 22.112 139.131 22.2671 138.965 22.3478L138.685 22.5046L141.438 27.3424C141.583 27.5972 141.398 27.9139 141.105 27.9139H137.749C137.61 27.9139 137.48 27.8379 137.414 27.7144L135.082 23.4386C135.015 23.3151 134.885 23.2391 134.746 23.2391H133.231C133.021 23.2391 132.848 23.4101 132.848 23.6222V27.5323C132.848 27.7429 132.677 27.9154 132.465 27.9154H129.197C128.987 27.9186 128.816 27.7476 128.816 27.5355ZM136.757 19.2102C137.053 18.9284 137.203 18.5722 137.203 18.148C137.203 17.7237 137.054 17.3707 136.757 17.0921C136.46 16.8103 136.077 16.671 135.607 16.671H133.233C133.022 16.671 132.85 16.842 132.85 17.0541V19.2545C132.85 19.4651 133.021 19.6376 133.233 19.6376H135.607C136.077 19.6376 136.459 19.4952 136.757 19.2102Z" fill="white"/>
<path d="M157.654 14.9454C159.262 16.4905 160.063 18.3379 160.063 20.4861C160.063 22.6359 159.262 24.4817 157.654 26.0268C156.048 27.5719 154.092 28.3428 151.787 28.3428C149.482 28.3428 147.527 27.5703 145.92 26.0268C144.312 24.4817 143.511 22.6359 143.511 20.4861C143.511 18.3379 144.312 16.4905 145.92 14.9454C147.525 13.4003 149.482 12.6294 151.787 12.6294C154.092 12.6278 156.048 13.4003 157.654 14.9454ZM148.838 17.4546C148.043 18.2587 147.646 19.2687 147.646 20.4845C147.646 21.7035 148.043 22.7135 148.838 23.5224C149.632 24.3313 150.617 24.7366 151.792 24.7366C152.966 24.7366 153.949 24.3313 154.741 23.5224C155.532 22.7135 155.928 21.7035 155.928 20.4845C155.928 19.2687 155.534 18.2587 154.741 17.4546C153.949 16.6488 152.966 16.2467 151.792 16.2467C150.617 16.2467 149.632 16.6488 148.838 17.4546Z" fill="white"/>
<path d="M167.91 22.6644L166.742 23.9863C166.68 24.0559 166.645 24.1462 166.645 24.2396V27.5371C166.645 27.7476 166.474 27.9202 166.262 27.9202H162.995C162.784 27.9202 162.612 27.7492 162.612 27.5371V13.4368C162.612 13.2263 162.783 13.0537 162.995 13.0537H166.262C166.473 13.0537 166.645 13.2247 166.645 13.4368V17.7475C166.645 18.1037 167.088 18.2667 167.32 17.996L171.415 13.1899C171.488 13.1044 171.594 13.0553 171.706 13.0553H175.369C175.697 13.0553 175.873 13.44 175.659 13.6885L171.086 18.9933C170.973 19.1231 170.962 19.3099 171.056 19.454L176.239 27.3281C176.406 27.583 176.224 27.9218 175.919 27.9218H172.159C172.031 27.9218 171.91 27.8569 171.839 27.7492L168.516 22.7104C168.377 22.4966 168.078 22.4745 167.91 22.6644Z" fill="white"/>
<path d="M183.522 24.5182H190.396C190.606 24.5182 190.779 24.6892 190.779 24.9013V27.5355C190.779 27.746 190.608 27.9186 190.396 27.9186H179.49C179.28 27.9186 179.107 27.7476 179.107 27.5355V13.4368C179.107 13.2263 179.278 13.0537 179.49 13.0537H190.19C190.401 13.0537 190.573 13.2247 190.573 13.4368V16.071C190.573 16.2816 190.402 16.4541 190.19 16.4541H183.522C183.312 16.4541 183.139 16.6251 183.139 16.8372V18.4029C183.139 18.6134 183.31 18.786 183.522 18.786H188.488C188.699 18.786 188.871 18.9569 188.871 19.1691V21.5959C188.871 21.8064 188.7 21.979 188.488 21.979H183.522C183.312 21.979 183.139 22.1499 183.139 22.3621V24.1367C183.139 24.3472 183.31 24.5182 183.522 24.5182Z" fill="white"/>
<path d="M193.328 27.5355V13.4368C193.328 13.2263 193.498 13.0537 193.711 13.0537H200.337C201.906 13.0537 203.198 13.5413 204.217 14.5196C205.237 15.4979 205.747 16.709 205.747 18.1527C205.747 18.7464 205.658 19.302 205.482 19.8165C205.307 20.331 205.094 20.7474 204.844 21.0687C204.597 21.3901 204.347 21.664 204.099 21.8872C203.849 22.112 203.643 22.2671 203.476 22.3478L203.196 22.5046L205.949 27.3424C206.095 27.5972 205.91 27.9139 205.617 27.9139H202.261C202.121 27.9139 201.992 27.8379 201.925 27.7144L199.593 23.4386C199.527 23.3151 199.397 23.2391 199.258 23.2391H197.743C197.532 23.2391 197.36 23.4101 197.36 23.6222V27.5323C197.36 27.7429 197.189 27.9154 196.976 27.9154H193.709C193.498 27.9186 193.328 27.7476 193.328 27.5355ZM201.268 19.2102C201.564 18.9284 201.715 18.5722 201.715 18.148C201.715 17.7237 201.566 17.3707 201.268 17.0921C200.972 16.8103 200.589 16.671 200.119 16.671H197.744C197.534 16.671 197.361 16.842 197.361 17.0541V19.2545C197.361 19.4651 197.532 19.6376 197.744 19.6376H200.119C200.589 19.6376 200.972 19.4952 201.268 19.2102Z" fill="white"/>
</svg>
