<svg width="49" height="49" viewBox="0 0 49 49" fill="none" xmlns="http://www.w3.org/2000/svg">
<g clip-path="url(#clip0_137_1889)">
<path d="M0 10.2018C0.26196 9.43523 0.416198 8.60712 0.807914 7.91313C1.97082 5.85331 3.79108 4.80003 6.15117 4.78403C9.6913 4.76065 13.2314 4.77419 16.7716 4.77911C17.5966 4.78034 18.1499 5.27991 18.156 5.98867C18.1634 6.70603 17.5795 7.21914 16.7422 7.22037C13.2657 7.22283 9.78923 7.21668 6.31275 7.22283C4.41782 7.22653 3.0407 8.25643 2.56941 10.0332C2.47271 10.3987 2.447 10.7924 2.447 11.1739C2.44088 21.6415 2.43966 32.108 2.44455 42.5756C2.44578 44.537 3.42017 45.909 5.16086 46.3938C5.5538 46.5033 5.97734 46.5464 6.38742 46.5464C17.6138 46.5538 28.8401 46.5538 40.0664 46.5513C42.4534 46.5501 44.0044 44.9788 44.0068 42.5658C44.0117 39.0872 44.0068 35.6087 44.0093 32.1301C44.0093 31.43 44.3741 30.9169 44.9396 30.7889C45.6851 30.6203 46.4024 31.1605 46.4232 31.9456C46.4489 32.9226 46.4343 33.9008 46.433 34.879C46.4294 37.6525 46.4661 40.426 46.4073 43.1983C46.3424 46.2646 43.7486 48.8424 40.6956 48.9741C40.4728 48.984 40.2488 48.9926 40.026 48.9926C28.8156 48.9938 17.6052 48.9889 6.39476 48.9975C3.93919 49 2.03203 48.0082 0.810362 45.8635C0.416198 45.1756 0.263184 44.3463 0 43.5809C0 32.4537 0 21.3278 0 10.2018Z" fill="#001A49"/>
<path d="M42.107 -6.86646e-05C43.4682 0.0270018 44.7034 0.472434 45.7353 1.42113C46.2996 1.93916 46.8382 2.48918 47.3695 3.04167C49.5031 5.26145 49.5459 8.47668 47.4796 10.7592C47.3511 10.9019 47.2152 11.0373 47.0806 11.1739C40.0444 18.2467 33.007 25.3182 25.9769 32.3971C25.5791 32.797 25.142 33.0517 24.5998 33.2006C21.4207 34.0718 18.2478 34.9639 15.0725 35.8523C14.6502 35.9704 14.2364 36.0566 13.8239 35.8166C13.3147 35.5201 13.1041 34.9848 13.2841 34.3216C14.032 31.5739 14.8619 28.8472 15.5168 26.0774C15.9098 24.42 16.7116 23.1501 17.9137 21.9565C24.6316 15.2898 31.2883 8.56035 37.9561 1.84195C39.103 0.687767 40.441 0.0245409 42.107 -6.86646e-05ZM36.9327 6.54852C31.0423 12.4696 25.1188 18.4238 19.2406 24.3326C21.0829 26.1845 22.9741 28.0855 24.7895 29.9116C30.6812 23.9893 36.6046 18.035 42.484 12.125C40.6418 10.2744 38.7493 8.37455 36.9327 6.54852ZM38.6269 4.54285C40.6038 6.53253 42.5 8.44223 44.4512 10.4061C44.7988 10.0369 45.1734 9.64563 45.5406 9.24942C45.6924 9.08576 45.843 8.91842 45.9752 8.74C46.7342 7.71994 46.7599 6.13755 45.9422 5.16301C45.3191 4.42103 44.6336 3.71228 43.8881 3.09704C42.9468 2.32061 41.8083 2.19264 40.7629 2.80049C39.9697 3.26192 39.316 3.96822 38.6269 4.54285ZM17.9137 26.6816C17.3408 28.766 16.7703 30.8381 16.1766 32.9939C18.3225 32.3947 20.3864 31.8188 22.4514 31.2429C20.925 29.7085 19.4401 28.216 17.9137 26.6816Z" fill="#001A49"/>
</g>
<defs>
<clipPath id="clip0_137_1889">
<rect width="49" height="49" fill="white"/>
</clipPath>
</defs>
</svg>
