<svg width="285" height="346" viewBox="0 0 285 346" fill="none" xmlns="http://www.w3.org/2000/svg">
<path d="M27.0188 89.9666C33.5954 63.0701 47.5634 42.9503 66.0702 30.5553L63.0318 29.3407L82.0528 22.2061C82.8579 21.9049 83.6628 21.5696 84.4682 21.3023L84.8708 21.1517C113.76 11.006 149.503 15.8473 184.984 38.0651C254.526 81.6349 296.585 175.516 278.871 247.749C270.992 279.904 252.601 302.326 228.498 313.509L228.532 313.514L228.364 313.56C224.945 315.146 221.389 316.51 217.73 317.624L198.174 325.095L198.143 321.324C174.267 323.204 147.492 316.319 120.906 299.65C51.3644 256.08 9.33936 162.204 27.0188 89.9666Z" fill="url(#paint0_linear_137_2799)"/>
<path d="M5.14645 98.185C-12.533 170.422 29.4921 264.299 99.0341 307.869C168.576 351.438 239.32 328.204 256.999 255.967C274.679 183.73 232.653 89.8534 163.112 46.2836C93.5696 2.71377 22.8259 25.948 5.14645 98.185Z" fill="url(#paint1_linear_137_2799)"/>
<path d="M21.05 108.967C5.84516 171.111 42.0087 251.896 101.843 289.368C161.677 326.841 222.521 306.851 237.759 244.712C252.964 182.568 216.801 101.783 156.966 64.3108C97.132 26.8384 36.2548 46.8237 21.05 108.967Z" fill="url(#paint2_linear_137_2799)"/>
<path d="M21.05 108.967C5.84516 171.111 42.0087 251.896 101.843 289.368C161.677 326.841 222.521 306.851 237.759 244.712C252.964 182.568 216.801 101.783 156.966 64.3108C97.132 26.8384 36.2548 46.8237 21.05 108.967Z" fill="url(#paint3_linear_137_2799)"/>
<path opacity="0.4" d="M193 95C179.5 77.5 149 56.5 128 50.5L122 171L193 95Z" fill="#E85B6B"/>
<path d="M113.454 285.466C53.6193 247.96 17.456 167.209 32.6942 105.036C39.6623 76.6296 56.1585 57.0463 77.7528 47.739C50.5175 54.437 29.2226 75.6285 21.0499 108.967C5.84511 171.111 42.0086 251.896 101.843 289.368C134.314 309.73 167.083 313.094 192.701 302.042C169.126 307.831 141.189 302.829 113.454 285.466Z" fill="#BCBCBC"/>
<path d="M172.595 111.202L115.004 174.927C114.371 175.658 114.481 176.826 115.262 177.608C116.042 178.355 117.186 178.404 117.82 177.707L174.258 112.88C174.891 112.149 175.086 111.259 174.475 110.669C173.797 110.071 172.895 110.868 172.595 111.202Z" fill="url(#paint4_linear_137_2799)" stroke="url(#paint5_linear_137_2799)" stroke-width="3.39771" stroke-miterlimit="10"/>
<path d="M126.725 110.662L122.588 172.328C122.527 173.168 123.207 174.004 124.05 174.183C124.892 174.362 125.628 173.814 125.655 172.969L128.546 111.071C128.606 110.231 128.297 109.443 127.623 109.321C126.916 109.227 126.756 110.292 126.725 110.662Z" fill="url(#paint6_linear_137_2799)" stroke="url(#paint7_linear_137_2799)" stroke-width="3.39771" stroke-miterlimit="10"/>
<path d="M129.222 70.467L129.167 63.7057C129.15 61.6332 130.587 60.4649 132.41 61.1121C134.198 61.7548 135.697 63.9885 135.714 66.0611L135.77 72.8223C135.787 74.8948 134.349 76.0632 132.527 75.416C130.704 74.7688 129.239 72.5395 129.222 70.467ZM134.672 291.756C136.46 292.399 137.931 291.235 137.914 289.162L137.859 282.401C137.842 280.328 136.343 278.095 134.554 277.452C132.766 276.809 131.295 277.973 131.312 280.046L131.367 286.807C131.384 288.879 132.849 291.109 134.672 291.756ZM176.412 104.781C177.973 106.378 179.993 106.509 180.856 105.027L183.744 100.214C184.64 98.7374 184.081 96.2541 182.486 94.6187C180.925 93.0217 178.905 92.8915 178.043 94.373L175.155 99.1855C174.292 100.667 174.851 103.184 176.412 104.781ZM84.5271 258.206C86.0881 259.803 88.1081 259.934 88.9709 258.452L91.859 253.64C92.7554 252.162 92.1966 249.679 90.6017 248.044C89.0407 246.447 87.0206 246.316 86.1578 247.798L83.2698 252.611C82.4073 254.126 82.9661 256.609 84.5271 258.206ZM208.845 153.342C209.771 155.466 211.767 156.815 213.311 156.34L218.346 154.797C219.89 154.321 220.411 152.217 219.486 150.093C218.56 147.969 216.563 146.62 215.019 147.095L209.951 148.634C208.44 149.114 207.919 151.218 208.845 153.342ZM47.5283 202.766C48.4543 204.89 50.4507 206.239 51.9947 205.764L57.0296 204.22C58.5736 203.745 59.0947 201.641 58.1687 199.517C57.2427 197.393 55.2463 196.044 53.7023 196.519L48.6675 198.063C47.1235 198.538 46.6023 200.642 47.5283 202.766ZM221.072 208.101C221.089 210.173 222.588 212.407 224.376 213.05L230.249 215.18C232.038 215.823 233.509 214.659 233.492 212.587C233.475 210.514 231.976 208.28 230.187 207.638L224.315 205.507C222.492 204.86 221.055 206.028 221.072 208.101ZM33.5557 140.277C33.5727 142.349 35.0716 144.583 36.8603 145.226L42.7329 147.357C44.5216 147.999 45.9927 146.835 45.9757 144.763C45.9587 142.69 44.4598 140.457 42.671 139.814L36.7985 137.683C35.0097 137.04 33.5384 138.17 33.5557 140.277ZM209.842 254.375C208.946 255.852 209.504 258.335 211.099 259.971L216.223 265.193C217.784 266.79 219.805 266.92 220.667 265.439C221.564 263.962 221.005 261.478 219.41 259.843L214.286 254.62C212.725 252.989 210.739 252.898 209.842 254.375ZM46.3805 87.4587C45.4841 88.9359 46.0429 91.4191 47.6378 93.0546L52.7618 98.277C54.3228 99.874 56.3429 100.004 57.2057 98.5227C58.1021 97.0455 57.5433 94.5623 55.9483 92.9268L50.8243 87.7044C49.2631 86.0734 47.277 85.9816 46.3805 87.4587ZM178.15 279.73C176.606 280.205 176.085 282.309 177.011 284.433L179.995 291.376C180.921 293.5 182.918 294.849 184.462 294.374C186.006 293.898 186.527 291.795 185.601 289.671L182.616 282.727C181.724 280.607 179.728 279.259 178.15 279.73ZM82.5522 58.4852C81.0082 58.9607 80.4871 61.0642 81.413 63.1885L84.3976 70.1317C85.3235 72.2561 87.32 73.6049 88.864 73.1294C90.408 72.6539 90.9291 70.5504 90.0031 68.4261L87.0186 61.4829C86.0923 59.3246 84.0962 58.0097 82.5522 58.4852Z" fill="url(#paint8_linear_137_2799)"/>
<path d="M156.933 64.3405C106.941 33.0172 56.2694 41.8564 32.0665 81.8408C41.3412 141.811 86.2413 204.672 150.225 239.297C177.806 254.23 205.564 262.025 231.25 263.336C233.895 257.643 236.099 251.451 237.726 244.741C252.931 182.598 216.767 101.813 156.933 64.3405Z" fill="url(#paint9_linear_137_2799)"/>
<defs>
<linearGradient id="paint0_linear_137_2799" x1="23.2015" y1="152.56" x2="282.42" y2="150.433" gradientUnits="userSpaceOnUse">
<stop stop-color="#E02D7B"/>
<stop offset="0.2101" stop-color="#E02F78"/>
<stop offset="0.3901" stop-color="#E2376D"/>
<stop offset="0.5589" stop-color="#E5435B"/>
<stop offset="0.7211" stop-color="#E85443"/>
<stop offset="0.877" stop-color="#ED6A23"/>
<stop offset="1" stop-color="#F17F04"/>
</linearGradient>
<linearGradient id="paint1_linear_137_2799" x1="242.925" y1="135.108" x2="20.6914" y2="240.435" gradientUnits="userSpaceOnUse">
<stop stop-color="#E02D7B"/>
<stop offset="0.2101" stop-color="#E02F78"/>
<stop offset="0.3901" stop-color="#E2376D"/>
<stop offset="0.5589" stop-color="#E5435B"/>
<stop offset="0.7211" stop-color="#E85443"/>
<stop offset="0.877" stop-color="#ED6A23"/>
<stop offset="1" stop-color="#F17F04"/>
</linearGradient>
<linearGradient id="paint2_linear_137_2799" x1="53.0683" y1="244.332" x2="205.686" y2="109.378" gradientUnits="userSpaceOnUse">
<stop stop-color="#7AA9F2"/>
<stop offset="0.203" stop-color="#90BBF6"/>
<stop offset="0.5201" stop-color="#ACD3FB"/>
<stop offset="0.7966" stop-color="#BEE2FE"/>
<stop offset="1" stop-color="#C4E7FF"/>
</linearGradient>
<linearGradient id="paint3_linear_137_2799" x1="53.0683" y1="244.332" x2="205.686" y2="109.378" gradientUnits="userSpaceOnUse">
<stop offset="1.38522e-07" stop-color="#B8B8B8"/>
<stop offset="0.1741" stop-color="#CACACA"/>
<stop offset="0.5027" stop-color="#E6E6E6"/>
<stop offset="0.7892" stop-color="#F8F8F8"/>
<stop offset="1" stop-color="#FEFEFE"/>
</linearGradient>
<linearGradient id="paint4_linear_137_2799" x1="179.305" y1="144.337" x2="111.522" y2="153.513" gradientUnits="userSpaceOnUse">
<stop offset="1.33195e-07" stop-color="#231F20"/>
<stop offset="0.3981" stop-color="#2C292A"/>
<stop offset="1" stop-color="#404041"/>
</linearGradient>
<linearGradient id="paint5_linear_137_2799" x1="115.071" y1="138.356" x2="174.788" y2="141.824" gradientUnits="userSpaceOnUse">
<stop offset="1.33195e-07" stop-color="#231F20"/>
<stop offset="0.3981" stop-color="#2C292A"/>
<stop offset="1" stop-color="#404041"/>
</linearGradient>
<linearGradient id="paint6_linear_137_2799" x1="110.319" y1="124.243" x2="141.42" y2="159.753" gradientUnits="userSpaceOnUse">
<stop offset="1.33195e-07" stop-color="#231F20"/>
<stop offset="0.3981" stop-color="#2C292A"/>
<stop offset="1" stop-color="#404041"/>
</linearGradient>
<linearGradient id="paint7_linear_137_2799" x1="121.069" y1="141.182" x2="130.078" y2="141.146" gradientUnits="userSpaceOnUse">
<stop offset="1.33195e-07" stop-color="#231F20"/>
<stop offset="0.3981" stop-color="#2C292A"/>
<stop offset="1" stop-color="#404041"/>
</linearGradient>
<linearGradient id="paint8_linear_137_2799" x1="33.7586" y1="163.293" x2="233.054" y2="161.658" gradientUnits="userSpaceOnUse">
<stop stop-color="#992053"/>
<stop offset="0.1783" stop-color="#B02753"/>
<stop offset="0.5439" stop-color="#DB3354"/>
<stop offset="0.8302" stop-color="#F53A54"/>
<stop offset="1" stop-color="#FF3D54"/>
</linearGradient>
<linearGradient id="paint9_linear_137_2799" x1="61.1796" y1="232.471" x2="226.867" y2="85.9601" gradientUnits="userSpaceOnUse">
<stop stop-color="white"/>
<stop offset="0.0454" stop-color="white" stop-opacity="0.9546"/>
<stop offset="1" stop-color="white" stop-opacity="0"/>
</linearGradient>
</defs>
</svg>
